<svg width="132" height="132" viewBox="0 0 132 132" fill="none" xmlns="http://www.w3.org/2000/svg">
<circle cx="66" cy="66" r="66" fill="#FF8D56"/>
<path d="M71.2501 100.125H60.7501C60.0539 100.125 59.3862 100.402 58.8939 100.894C58.4016 101.386 58.1251 102.054 58.1251 102.75C58.1251 103.446 58.4016 104.114 58.8939 104.606C59.3862 105.099 60.0539 105.375 60.7501 105.375H71.2501C71.9463 105.375 72.6139 105.099 73.1062 104.606C73.5985 104.114 73.8751 103.446 73.8751 102.75C73.8751 102.054 73.5985 101.386 73.1062 100.894C72.6139 100.402 71.9463 100.125 71.2501 100.125ZM73.8751 92.2501H58.1251C57.4289 92.2501 56.7612 92.5266 56.2689 93.0189C55.7766 93.5112 55.5001 94.1789 55.5001 94.8751C55.5001 95.5713 55.7766 96.2389 56.2689 96.7312C56.7612 97.2235 57.4289 97.5001 58.1251 97.5001H73.8751C74.5713 97.5001 75.2389 97.2235 75.7312 96.7312C76.2235 96.2389 76.5001 95.5713 76.5001 94.8751C76.5001 94.1789 76.2235 93.5112 75.7312 93.0189C75.2389 92.5266 74.5713 92.2501 73.8751 92.2501ZM84.608 34.2852C79.6747 29.3452 73.0662 26.6251 66.0001 26.6251C62.5506 26.6169 59.1334 27.2902 55.9449 28.6065C52.7564 29.9228 49.8594 31.856 47.4202 34.2952C44.981 36.7344 43.0478 39.6314 41.7315 42.8199C40.4152 46.0084 39.7419 49.4256 39.7501 52.8751C39.7501 60.5237 42.6819 67.6784 47.7891 72.5035L48.5044 73.1745C51.4592 75.9373 55.5001 79.7223 55.5001 83.0626V87.0001C55.5001 87.6963 55.7766 88.3639 56.2689 88.8562C56.7612 89.3485 57.4289 89.6251 58.1251 89.6251H62.0626C62.4107 89.6251 62.7445 89.4868 62.9907 89.2406C63.2368 88.9945 63.3751 88.6607 63.3751 88.3126V69.0877C63.3752 68.8223 63.2948 68.5631 63.1445 68.3443C62.9942 68.1255 62.7812 67.9574 62.5334 67.8622C61.0176 67.2438 59.5776 66.4539 58.2416 65.5079C57.9413 65.3162 57.6832 65.0653 57.483 64.7706C57.2828 64.476 57.1447 64.1436 57.0771 63.7939C57.0095 63.4441 57.0137 63.0842 57.0896 62.7362C57.1655 62.3881 57.3115 62.0591 57.5186 61.7693C57.7258 61.4794 57.9897 61.2348 58.2944 61.0502C58.5991 60.8657 58.9382 60.7451 59.291 60.6958C59.6439 60.6465 60.003 60.6695 60.3466 60.7634C60.6903 60.8574 61.0112 61.0203 61.2898 61.2423C62.5039 62.1019 64.8418 63.3751 66.0001 63.3751C67.1584 63.3751 69.4962 62.0987 70.7136 61.2423C71.2804 60.8859 71.962 60.7596 72.6188 60.8892C73.2757 61.0188 73.8582 61.3945 74.2472 61.9394C74.6362 62.4844 74.8023 63.1573 74.7114 63.8207C74.6206 64.484 74.2798 65.0876 73.7586 65.5079C72.4223 66.4522 70.9823 67.2404 69.4667 67.8573C69.219 67.9525 69.0059 68.1206 68.8556 68.3394C68.7054 68.5582 68.625 68.8174 68.6251 69.0828V88.3126C68.6251 88.6607 68.7634 88.9945 69.0095 89.2406C69.2556 89.4868 69.5895 89.6251 69.9376 89.6251H73.8751C74.5713 89.6251 75.2389 89.3485 75.7312 88.8562C76.2235 88.3639 76.5001 87.6963 76.5001 87.0001V83.0626C76.5001 79.801 80.4966 76.0194 83.4153 73.2566L84.2209 72.492C89.4741 67.4766 92.2501 60.6861 92.2501 52.8751C92.2674 49.4252 91.601 46.0062 90.2894 42.8154C88.9777 39.6246 87.0467 36.7253 84.608 34.2852Z" fill="white"/>
</svg>
