<svg width="96" height="94" viewBox="0 0 96 94" fill="none" xmlns="http://www.w3.org/2000/svg">
<path d="M57 90.75H39C22.0305 90.75 13.5435 90.75 8.274 85.476C3 80.2065 3 71.7195 3 54.75V45.75C3 28.7805 3 20.2935 8.274 15.024C13.5435 9.75 22.0305 9.75 39 9.75H57C73.9695 9.75 82.4565 9.75 87.726 15.024C93 20.2935 93 28.7805 93 45.75V54.75C93 71.7195 93 80.2065 87.726 85.476C84.7875 88.419 80.85 89.7195 75 90.291M25.5 9.75V3M70.5 9.75V3M90.75 32.25H42.375M3 32.25H20.4375" stroke="white" stroke-width="5" stroke-linecap="round"/>
<path d="M75 68.2498C75 69.4432 74.5259 70.5878 73.682 71.4317C72.8381 72.2757 71.6935 72.7498 70.5 72.7498C69.3065 72.7498 68.1619 72.2757 67.318 71.4317C66.4741 70.5878 66 69.4432 66 68.2498C66 67.0563 66.4741 65.9117 67.318 65.0678C68.1619 64.2239 69.3065 63.7498 70.5 63.7498C71.6935 63.7498 72.8381 64.2239 73.682 65.0678C74.5259 65.9117 75 67.0563 75 68.2498ZM75 50.2498C75 51.4432 74.5259 52.5878 73.682 53.4317C72.8381 54.2756 71.6935 54.7498 70.5 54.7498C69.3065 54.7498 68.1619 54.2756 67.318 53.4317C66.4741 52.5878 66 51.4432 66 50.2498C66 49.0563 66.4741 47.9117 67.318 47.0678C68.1619 46.2239 69.3065 45.7498 70.5 45.7498C71.6935 45.7498 72.8381 46.2239 73.682 47.0678C74.5259 47.9117 75 49.0563 75 50.2498ZM52.5 68.2498C52.5 69.4432 52.0259 70.5878 51.182 71.4317C50.3381 72.2757 49.1935 72.7498 48 72.7498C46.8065 72.7498 45.6619 72.2757 44.818 71.4317C43.9741 70.5878 43.5 69.4432 43.5 68.2498C43.5 67.0563 43.9741 65.9117 44.818 65.0678C45.6619 64.2239 46.8065 63.7498 48 63.7498C49.1935 63.7498 50.3381 64.2239 51.182 65.0678C52.0259 65.9117 52.5 67.0563 52.5 68.2498ZM52.5 50.2498C52.5 51.4432 52.0259 52.5878 51.182 53.4317C50.3381 54.2756 49.1935 54.7498 48 54.7498C46.8065 54.7498 45.6619 54.2756 44.818 53.4317C43.9741 52.5878 43.5 51.4432 43.5 50.2498C43.5 49.0563 43.9741 47.9117 44.818 47.0678C45.6619 46.2239 46.8065 45.7498 48 45.7498C49.1935 45.7498 50.3381 46.2239 51.182 47.0678C52.0259 47.9117 52.5 49.0563 52.5 50.2498ZM30 68.2498C30 69.4432 29.5259 70.5878 28.682 71.4317C27.8381 72.2757 26.6935 72.7498 25.5 72.7498C24.3065 72.7498 23.1619 72.2757 22.318 71.4317C21.4741 70.5878 21 69.4432 21 68.2498C21 67.0563 21.4741 65.9117 22.318 65.0678C23.1619 64.2239 24.3065 63.7498 25.5 63.7498C26.6935 63.7498 27.8381 64.2239 28.682 65.0678C29.5259 65.9117 30 67.0563 30 68.2498ZM30 50.2498C30 51.4432 29.5259 52.5878 28.682 53.4317C27.8381 54.2756 26.6935 54.7498 25.5 54.7498C24.3065 54.7498 23.1619 54.2756 22.318 53.4317C21.4741 52.5878 21 51.4432 21 50.2498C21 49.0563 21.4741 47.9117 22.318 47.0678C23.1619 46.2239 24.3065 45.7498 25.5 45.7498C26.6935 45.7498 27.8381 46.2239 28.682 47.0678C29.5259 47.9117 30 49.0563 30 50.2498Z" fill="white"/>
</svg>
