<svg width="37" height="36" viewBox="0 0 37 36" fill="none" xmlns="http://www.w3.org/2000/svg">
<path d="M35.3392 11.4401C33.9924 7.94554 31.5834 4.98135 28.4915 2.94525C25.6747 1.08908 22.2983 0 18.6753 0C8.81166 0 0.816406 7.98343 0.816406 17.8325C0.816406 23.8082 3.77551 29.0926 8.29951 32.322C11.2301 34.4149 14.7962 35.6555 18.6753 35.6555C22.3078 35.6555 25.6747 34.5664 28.4915 32.7103C28.6812 32.5871 28.8614 32.4546 29.0511 32.322C32.6456 29.7555 35.2443 25.9011 36.1643 21.4312C36.4014 20.2663 36.5342 19.0636 36.5342 17.8325C36.5342 15.5786 36.1074 13.4288 35.3486 11.4401H35.3392ZM32.1619 9.80171L29.6771 11.2791C29.5917 11.3264 29.4873 11.3548 29.3925 11.3454L28.501 11.2507L26.718 11.0518C26.6421 11.0518 26.5662 11.0139 26.5093 10.976L24.603 9.6786C24.5366 9.63125 24.4702 9.61231 24.3943 9.60284L20.8757 9.24297C20.7429 9.2335 20.6101 9.27138 20.5058 9.36608L18.6089 11.1654C18.4761 11.2885 18.4287 11.4779 18.4856 11.6484L19.8134 15.6164C19.8514 15.7206 19.9272 15.8153 20.022 15.8721L23.1329 17.6715C23.3131 17.7757 23.5312 17.7473 23.683 17.6052L24.8021 16.554C24.9349 16.4309 25.1341 16.393 25.2953 16.4593L28.3967 17.7662C28.3967 17.7662 28.4631 17.8135 28.4915 17.8325C28.5579 17.8893 28.6148 17.9461 28.6433 18.0314L30.3694 22.7097C30.4168 22.8328 30.4073 22.9748 30.3409 23.0885L28.8329 25.8822C28.6812 26.1663 28.8519 26.5167 29.1744 26.5546L31.9438 26.9523C30.9859 28.335 29.8193 29.5661 28.4915 30.5889C27.6095 31.2708 26.6516 31.8485 25.6367 32.3409C23.5218 33.3637 21.1696 33.9414 18.6658 33.9414C16.162 33.9414 13.8099 33.3542 11.6949 32.3409C6.28883 29.7366 2.54255 24.2344 2.54255 17.8514C2.54255 15.7396 2.95987 13.7319 3.70912 11.8852L4.54375 14.2338C4.60065 14.4043 4.70498 14.5558 4.83775 14.6789L5.9474 15.7206C6.22244 15.9858 6.67769 15.8153 6.72511 15.4365L6.90532 13.8645L6.39316 13.1258V11.8378C6.39316 11.5821 6.60183 11.3738 6.85791 11.3738H9.54194C9.6273 11.3738 9.72215 11.3454 9.78854 11.298L12.9183 9.28085C12.9752 9.24297 13.0321 9.18615 13.0606 9.12933L14.4263 6.83752C14.635 6.49659 15.0049 6.28825 15.4032 6.28825H16.2283C16.456 6.28825 16.6551 6.11778 16.6836 5.8905L16.9681 3.97751C16.9966 3.76916 16.8923 3.57029 16.4939 3.39982L14.1418 2.39597C15.5739 1.97928 17.082 1.74253 18.6563 1.74253C20.8757 1.74253 22.9906 2.1971 24.9159 3.01154C24.8685 3.03048 24.8306 3.05889 24.7927 3.09677L23.9201 3.96804C23.5787 4.30897 23.057 4.3942 22.6302 4.18585L22.4406 4.09115C22.0043 3.8828 21.4921 3.96804 21.1507 4.30897L19.9272 5.53063C19.7375 5.72003 19.747 6.03255 19.9557 6.21249L21.568 7.5762C21.7008 7.68985 21.881 7.71826 22.0422 7.65197L24.7737 6.53448C24.8875 6.48712 25.0203 6.48712 25.1341 6.53448L28.2639 7.9266C28.3398 7.95501 28.4156 7.96448 28.4915 7.96448C28.5769 7.96448 28.6622 7.9266 28.7381 7.86978C29.0985 7.5762 29.8098 6.98905 30.1892 6.61024C31.1186 7.56673 31.9343 8.63687 32.6077 9.80171C32.4654 9.73542 32.2947 9.73542 32.1619 9.82065V9.80171Z" fill="#609933"/>
<path d="M16.8542 19.7739H16.5982C16.3706 19.7739 16.1619 19.6698 16.0291 19.4898L14.4642 17.4632C14.3789 17.3496 14.2461 17.2833 14.0943 17.2833H11.1732C11.0214 17.2833 10.8697 17.2075 10.7843 17.0749L9.53238 15.1619C9.37115 14.9157 9.02972 14.8778 8.82106 15.0862L7.61657 16.2889C7.61657 16.2889 7.57864 16.3362 7.55967 16.3647L5.77662 19.0826C5.64384 19.2815 5.69127 19.5467 5.87147 19.6887L8.09079 21.4881C8.2046 21.5828 8.33737 21.6491 8.47015 21.6869L9.41858 21.9805C9.60826 22.0373 9.73156 22.2078 9.74104 22.3972L9.99713 28.1078C9.99713 28.2214 10.0445 28.3256 10.1299 28.4108L12.3303 30.6458C12.6243 30.9394 13.1174 30.731 13.1174 30.3238V28.6855C13.1174 28.3919 13.2313 28.1078 13.4304 27.8994L14.3978 26.8956C14.4832 26.8103 14.5306 26.6967 14.5306 26.5736V24.9542C14.5306 24.8121 14.597 24.6701 14.7108 24.5848L16.5128 23.2211C16.5792 23.1643 16.6361 23.098 16.6646 23.0128L17.5087 20.721C17.6794 20.2475 17.3285 19.755 16.8353 19.755L16.8542 19.7739Z" fill="#609933"/>
</svg>
