<svg width="420" height="55" viewBox="0 0 420 55" fill="none" xmlns="http://www.w3.org/2000/svg">
<g clip-path="url(#clip0_1_4033)">
<path d="M367.623 43.428H420V53.0058H367.623V43.428Z" fill="#0C0C11"/>
<path d="M17.2524 23.6261C15.8096 22.8117 14.5526 21.3777 13.5081 19.3506C12.3219 17.049 11.7288 14.4997 11.7288 11.7644V3.45239H5.98388V11.7733C5.98388 14.4288 5.32883 16.9782 4.03644 19.3506C2.99191 21.3157 1.77919 22.7586 0.433684 23.6438L0.00878906 23.927L3.51417 26.1223L3.77973 25.9541C5.00131 25.1752 6.09895 24.1572 7.04611 22.9179C7.78083 21.9442 8.37391 20.9174 8.79881 19.8463C9.23255 20.9174 9.81678 21.9442 10.5426 22.9179C11.4721 24.1483 12.5343 25.1752 13.7117 25.9541L13.9684 26.1223L17.7747 23.9182L17.2702 23.6349L17.2524 23.6261Z" fill="#0C0C11"/>
<path d="M95.0083 28.6362H88.5464V18.9344H95.0083V3.29296H104.524V53.9086H95.0083V28.6273V28.6362ZM118.156 3.05396V54.8203H108.516V3.05396H118.156Z" fill="#0C0C11"/>
<path d="M159.026 28.3264C159.026 45.3576 152.537 52.9968 142.782 52.9968C133.028 52.9968 126.477 45.3576 126.477 28.3264C126.477 11.2951 133.028 3.65589 142.782 3.65589C152.537 3.65589 159.026 11.2951 159.026 28.3264ZM136.595 28.3264C136.595 39.9667 139.321 43.6049 142.782 43.6049C146.244 43.6049 148.908 39.9667 148.908 28.3264C148.908 16.686 146.182 13.0478 142.782 13.0478C139.383 13.0478 136.595 16.748 136.595 28.3264ZM175.03 54.8203H164.788V3.05396H175.03V54.8203Z" fill="#0C0C11"/>
<path d="M235.649 43.428V53.0059H183.271V43.428H235.649ZM232.807 36.5146H186.131V4.26685H196.195V11.6051H222.742V4.26685H232.807V36.5146ZM222.742 27.4236V20.5722H196.195V27.4236H222.742Z" fill="#0C0C11"/>
<path d="M405.04 18.7132C408.032 22.6611 412.635 25.8744 418.849 28.3618L412.927 35.1601C409.05 34.0625 405.509 32.478 402.296 30.3889C399.083 28.3087 396.303 25.662 393.966 22.4398C391.479 25.8036 388.629 28.5034 385.415 30.5483C382.202 32.5931 378.732 34.0891 375.005 35.0451L368.756 28.3618C374.749 26.2462 379.405 23.0683 382.733 18.8282C386.053 14.5881 387.938 8.78124 388.381 1.39868H399.339C400.145 9.00253 402.039 14.7652 405.04 18.7132Z" fill="#0C0C11"/>
<path d="M93.6272 49.1019C90.9539 47.2607 88.6169 44.0121 86.6872 39.4356C84.4919 34.2218 83.3854 28.4503 83.3854 22.2804V3.46997H72.7365V22.2893C72.7365 28.2998 71.5238 34.0624 69.1337 39.4356C67.204 43.8793 64.9556 47.1457 62.4505 49.1462L61.6538 49.7835L68.1512 54.7495L68.638 54.3689C70.8953 52.6073 72.9312 50.297 74.6928 47.4997C76.056 45.3044 77.1448 42.9764 77.9415 40.5421C78.747 42.9675 79.8269 45.2956 81.1636 47.4909C82.8809 50.2793 84.8549 52.5896 87.0324 54.3512L87.5016 54.7318L94.5566 49.7481L93.6183 49.1019H93.6272Z" fill="#0C0C11"/>
<path d="M25.8832 16.5622H23.1303V26.9633H18.4741V3.45239H23.1303V12.0388H25.8832V16.5533V16.5622Z" fill="#0C0C11"/>
<path d="M38.2404 17.111H28.0518V3.7268H42.507V7.66594H32.7345V13.1984H38.4351C40.5508 13.1984 42.6221 12.924 43.8614 12.4283V16.2789C42.6487 16.8012 40.4445 17.1021 38.2492 17.1021L38.2404 17.111ZM33.5931 22.7763H49.9427V26.9633H28.8573V18.7309H33.5931V22.7763ZM52.3593 8.13509V12.6496H49.6063V20.8554H44.9502V3.45239H49.6063V8.13509H52.3593Z" fill="#0C0C11"/>
<path d="M23.9004 30.4951V43.0472H19.2443V38.7806H16.0487V42.6046H1.7085V30.7695H6.22301V33.0799H11.5342V30.7695H16.0487V34.4342H19.2443V30.4951H23.9004ZM19.3239 43.8705H23.8916V53.9971H2.86811V43.8705H7.43573V45.3045H19.3239V43.8705ZM11.5342 38.9753V36.6118H6.22301V38.9753H11.5342ZM19.3239 50.3944V48.8276H7.43573V50.3944H19.3239Z" fill="#0C0C11"/>
<path d="M42.9235 37.5678C42.9235 41.8345 39.7899 44.614 35.1868 44.614C30.5838 44.614 27.4502 41.8345 27.4502 37.5678C27.4502 33.3012 30.5838 30.5217 35.1868 30.5217C39.7899 30.5217 42.9235 33.3277 42.9235 37.5678ZM34.2485 49.819H50.5981V54.006H29.5127V45.7736H34.2485V49.819ZM32.0798 37.5678C32.0798 39.6038 33.3987 40.7369 35.1868 40.7369C36.9749 40.7369 38.2939 39.6127 38.2939 37.5678C38.2939 35.523 36.9749 34.3988 35.1868 34.3988C33.3987 34.3988 32.0798 35.523 32.0798 37.5678ZM50.2706 47.8893H45.6145V30.4951H50.2706V47.8893Z" fill="#0C0C11"/>
<path d="M269.073 42.8436C273.756 42.8436 278.837 42.0381 281.847 40.7015V49.3676C278.846 50.8104 273.119 51.6248 268.383 51.6248H249.953V5.745H278.846V14.5262H259.894V42.8348H269.082L269.073 42.8436ZM295.939 4.59424V53.9352H286.175V31.8672H270.923V22.7408H286.175V4.59424H295.939Z" fill="#0C0C11"/>
<path d="M324.088 47.73V45.6675H359.611V30.2119H336.047C335.879 30.3358 335.702 30.4598 335.525 30.5748C332.896 32.3098 329.745 33.3278 326.363 33.3278C322.752 33.3278 319.415 32.1682 316.679 30.2119H313.847V37.3024H349.494V39.3649H313.971V54.8204H360.16V47.73H324.088Z" fill="#0C0C11"/>
<path d="M342.687 20.0232H349.37V28.3883H359.612V3.05396H349.37V10.6932H341.917C342.634 12.5521 343.023 14.5615 343.023 16.6683C343.023 17.8191 342.899 18.9433 342.678 20.0321L342.687 20.0232Z" fill="#0C0C11"/>
<path d="M341.917 10.6932C340.66 7.42681 338.411 4.65614 335.525 2.75297C332.896 1.01798 329.745 0 326.364 0C317.158 0 309.695 7.46222 309.695 16.6683C309.695 22.2539 312.457 27.1933 316.68 30.2118C319.415 32.1681 322.743 33.3277 326.364 33.3277C329.754 33.3277 332.896 32.3097 335.525 30.5747C335.702 30.4597 335.871 30.3357 336.048 30.2118C339.403 27.8129 341.828 24.2102 342.687 20.032C342.908 18.9432 343.032 17.819 343.032 16.6683C343.032 14.5615 342.634 12.5521 341.925 10.6932H341.917ZM338.951 9.1618L336.632 10.5427C336.552 10.587 336.455 10.6135 336.366 10.6047L335.534 10.5162L333.87 10.3303C333.799 10.3303 333.728 10.2949 333.675 10.2594L331.896 9.04673C331.834 9.00247 331.772 8.98476 331.701 8.97591L328.417 8.63953C328.293 8.63068 328.169 8.66609 328.072 8.75461L326.302 10.4365C326.178 10.5516 326.133 10.7286 326.187 10.8879L327.426 14.5969C327.461 14.6943 327.532 14.7828 327.621 14.8359L330.524 16.5178C330.692 16.6152 330.896 16.5886 331.037 16.4558L332.082 15.4733C332.206 15.3582 332.392 15.3228 332.542 15.3847L335.437 16.6063C335.437 16.6063 335.499 16.6506 335.525 16.6683C335.587 16.7214 335.64 16.7745 335.667 16.8542L337.278 21.2271C337.322 21.3421 337.313 21.4749 337.252 21.5811L335.844 24.1925C335.702 24.458 335.862 24.7855 336.163 24.821L338.748 25.1927C337.853 26.4851 336.765 27.6359 335.525 28.5919C334.702 29.2292 333.808 29.7692 332.861 30.2295C330.887 31.1855 328.692 31.7255 326.355 31.7255C324.018 31.7255 321.823 31.1767 319.849 30.2295C314.803 27.7952 311.306 22.6522 311.306 16.686C311.306 14.712 311.696 12.8354 312.395 11.1092L313.174 13.3045C313.227 13.4639 313.325 13.6055 313.449 13.7206L314.484 14.6943C314.741 14.9421 315.166 14.7828 315.21 14.4287L315.378 12.9593L314.9 12.2688V11.065C314.9 10.826 315.095 10.6312 315.334 10.6312H317.839C317.919 10.6312 318.007 10.6047 318.069 10.5604L320.99 8.67494C321.044 8.63953 321.097 8.58642 321.123 8.53331L322.398 6.39113C322.593 6.07246 322.938 5.87772 323.31 5.87772H324.08C324.292 5.87772 324.478 5.71838 324.505 5.50593L324.77 3.71783C324.797 3.52309 324.699 3.3372 324.328 3.17786L322.132 2.23955C323.469 1.85006 324.876 1.62876 326.346 1.62876C328.417 1.62876 330.391 2.05366 332.188 2.81493C332.144 2.83263 332.109 2.85919 332.073 2.8946L331.259 3.70898C330.94 4.02765 330.453 4.10732 330.055 3.91258L329.878 3.82406C329.471 3.62931 328.993 3.70898 328.674 4.02765L327.532 5.16956C327.355 5.3466 327.364 5.63871 327.559 5.8069L329.063 7.08159C329.187 7.18781 329.356 7.21437 329.506 7.1524L332.055 6.10787C332.162 6.06361 332.286 6.06361 332.392 6.10787L335.313 7.40911C335.384 7.43566 335.455 7.44452 335.525 7.44452C335.605 7.44452 335.685 7.40911 335.756 7.356C336.092 7.08159 336.756 6.53276 337.11 6.17868C337.977 7.07273 338.739 8.07301 339.367 9.1618C339.234 9.09984 339.075 9.09984 338.951 9.17951V9.1618Z" fill="#609933"/>
<path d="M324.664 18.483H324.425C324.212 18.483 324.018 18.3856 323.894 18.2174L322.433 16.3231C322.354 16.2169 322.23 16.1549 322.088 16.1549H319.362C319.22 16.1549 319.078 16.0841 318.999 15.9602L317.83 14.1721C317.68 13.9419 317.361 13.9065 317.166 14.1013L316.042 15.2255C316.042 15.2255 316.007 15.2697 315.989 15.2963L314.325 17.8368C314.201 18.0227 314.245 18.2705 314.413 18.4033L316.485 20.0852C316.591 20.1737 316.715 20.2357 316.839 20.2711L317.724 20.5455C317.901 20.5986 318.016 20.758 318.025 20.935L318.264 26.2727C318.264 26.379 318.308 26.4763 318.388 26.556L320.442 28.6451C320.716 28.9195 321.176 28.7247 321.176 28.3441V26.8127C321.176 26.5383 321.282 26.2727 321.468 26.078L322.371 25.1397C322.451 25.06 322.495 24.9538 322.495 24.8387V23.325C322.495 23.1922 322.557 23.0595 322.663 22.9798L324.345 21.7051C324.407 21.652 324.46 21.59 324.487 21.5104L325.275 19.3682C325.434 18.9256 325.107 18.4653 324.646 18.4653L324.664 18.483Z" fill="#609933"/>
</g>
<defs>
<clipPath id="clip0_1_4033">
<rect width="420" height="54.8203" fill="white"/>
</clipPath>
</defs>
</svg>
