<svg width="240" height="27" viewBox="0 0 240 27" fill="none" xmlns="http://www.w3.org/2000/svg">
<g clip-path="url(#clip0_98_986)">
<path d="M16.0053 1.20353C17.5074 1.90327 18.7109 2.87823 19.6066 4.12376C20.5023 5.36929 20.9921 6.78743 21.076 8.37349H15.2682C15.105 7.26325 14.6198 6.39557 13.8174 5.77981C13.0151 5.15937 11.9422 4.85149 10.6033 4.85149C9.2645 4.85149 8.32685 5.08473 7.60846 5.54656C6.8854 6.00839 6.5262 6.63348 6.5262 7.41719C6.5262 8.03295 6.75478 8.54143 7.20728 8.93328C7.65977 9.32513 8.35484 9.67034 9.29249 9.96889C10.2301 10.2674 11.5923 10.6033 13.3883 10.9718C16.1686 11.5503 18.1605 12.5019 19.3687 13.8314C20.5722 15.1609 21.174 16.8263 21.174 18.8229C21.174 20.3903 20.7262 21.7571 19.8305 22.9327C18.9348 24.1082 17.7126 25.0085 16.1686 25.6383C14.6245 26.2681 12.9031 26.5806 11.0092 26.5806C8.94729 26.5806 7.09998 26.2261 5.4626 25.5124C3.82522 24.8033 2.52838 23.7863 1.56741 22.4708C0.606438 21.1553 0.0839683 19.6019 0 17.8293H5.77982C5.94309 19.0468 6.5262 20.0171 7.52449 20.7495C8.52278 21.4819 9.81496 21.8457 11.401 21.8457C12.5533 21.8457 13.5049 21.5892 14.2606 21.0714C15.0117 20.5582 15.3895 19.8865 15.3895 19.0608C15.3895 18.403 15.1889 17.8572 14.7877 17.4234C14.3866 16.9896 13.7475 16.621 12.8705 16.3132C11.9935 16.0053 10.7759 15.7067 9.20852 15.4175C6.38625 14.881 4.27305 13.9854 2.87358 12.7305C1.47411 11.4757 0.774374 9.70299 0.774374 7.41719C0.774374 5.93375 1.2222 4.64623 2.11787 3.55465C3.01353 2.46306 4.23573 1.62338 5.77982 1.0356C7.3239 0.44782 9.05458 0.153931 10.9719 0.153931C12.8891 0.153931 14.5032 0.503798 16.01 1.20353H16.0053Z" fill="#0C0C11"/>
<path d="M27.313 25.1672C25.9742 24.3508 24.9339 23.2266 24.1922 21.7851C23.4505 20.3437 23.082 18.7156 23.082 16.9056C23.082 15.0956 23.4505 13.4676 24.1922 12.0215C24.9339 10.58 25.9742 9.4511 27.313 8.63941C28.6519 7.82772 30.1773 7.41721 31.8846 7.41721C34.2124 7.41721 35.9431 8.17758 37.0767 9.70301V7.85104H42.5766V25.9555H37.0767V24.1036C35.9431 25.629 34.2124 26.3894 31.8846 26.3894C30.1726 26.3894 28.6519 25.9835 27.313 25.1672ZM35.9664 20.3483C36.7688 19.4527 37.17 18.3051 37.17 16.9056C37.17 15.5061 36.7688 14.3586 35.9664 13.4583C35.1641 12.5626 34.0911 12.1148 32.7523 12.1148C31.4135 12.1148 30.4152 12.5626 29.6315 13.4583C28.8478 14.3539 28.4559 15.5015 28.4559 16.9056C28.4559 18.3098 28.8478 19.4527 29.6315 20.3483C30.4152 21.244 31.4555 21.6918 32.7523 21.6918C34.0492 21.6918 35.1641 21.244 35.9664 20.3483Z" fill="#0C0C11"/>
<path d="M64.2684 7.84637L57.3177 25.9509H51.6032L44.6525 7.84637H50.6142L54.6634 19.6486L58.7125 7.84637H64.2731H64.2684Z" fill="#0C0C11"/>
<path d="M69.1013 25.1672C67.6691 24.3508 66.5542 23.2266 65.7472 21.7851C64.9448 20.3437 64.5436 18.7156 64.5436 16.9056C64.5436 15.0956 64.9448 13.4676 65.7472 12.0215C66.5495 10.58 67.6691 9.4511 69.1013 8.63941C70.5334 7.82772 72.1568 7.41721 73.9667 7.41721C75.7767 7.41721 77.4001 7.82305 78.8322 8.63941C80.2644 9.4511 81.3793 10.58 82.1863 12.0215C82.9887 13.4629 83.3899 15.091 83.3899 16.9056C83.3899 17.5027 83.3479 18.0905 83.2639 18.669H70.0109C70.2162 19.7186 70.6687 20.5349 71.3684 21.1087C72.0681 21.6871 72.9311 21.9717 73.9621 21.9717C74.7458 21.9717 75.4409 21.8411 76.0473 21.5845C76.6537 21.328 77.0736 20.9827 77.2975 20.5489H82.8301C82.5222 21.7011 81.9437 22.7181 81.0994 23.5904C80.255 24.4674 79.2148 25.1485 77.9786 25.643C76.7424 26.1375 75.4035 26.3847 73.9621 26.3847C72.1474 26.3847 70.5287 25.9789 69.0966 25.1625L69.1013 25.1672ZM78.0159 15.1096C77.7873 14.018 77.3255 13.1877 76.6257 12.6232C75.926 12.0588 75.0397 11.7742 73.9667 11.7742C72.8938 11.7742 72.0215 12.0588 71.3404 12.6232C70.6593 13.1877 70.2068 14.018 69.9829 15.1096H78.0159Z" fill="#0C0C11"/>
<path d="M99.8616 9.45574H95.6585V25.5543H94.3617V9.45574H90.1586V8.2522H94.3617V2.87357H95.6585V8.24753H99.8616V9.45108V9.45574Z" fill="#0C0C11"/>
<path d="M103.659 0.401184H104.956V12.5439C105.142 11.9048 105.543 11.2191 106.159 10.4914C106.775 9.75898 107.596 9.13388 108.618 8.60675C109.639 8.07962 110.805 7.81838 112.126 7.81838C113.446 7.81838 114.621 8.12626 115.662 8.7467C116.702 9.36713 117.509 10.2441 118.087 11.387C118.666 12.5299 118.95 13.8454 118.95 15.3289V25.5543H117.654V15.5435C117.654 13.4629 117.14 11.8582 116.109 10.7246C115.079 9.59104 113.656 9.02659 111.846 9.02659C110.61 9.02659 109.462 9.39512 108.398 10.1228C107.339 10.8552 106.5 11.8022 105.879 12.9638C105.264 14.13 104.951 15.3149 104.951 16.5324V25.5543H103.654V0.401184H103.659Z" fill="#0C0C11"/>
<path d="M127.329 24.794C126.05 24.0009 125.047 22.914 124.315 21.5332C123.583 20.1524 123.219 18.6083 123.219 16.901C123.219 15.1936 123.583 13.6449 124.315 12.264C125.047 10.8832 126.05 9.7963 127.329 9.00327C128.607 8.21024 130.039 7.81372 131.625 7.81372C133.211 7.81372 134.643 8.21024 135.921 9.00327C137.2 9.7963 138.202 10.8832 138.935 12.264C139.667 13.6449 140.031 15.1889 140.031 16.901C140.031 17.1902 140.022 17.3861 139.998 17.4887H124.548C124.632 18.8695 124.982 20.1151 125.598 21.2253C126.214 22.3356 127.044 23.2079 128.084 23.8377C129.125 24.4674 130.305 24.78 131.62 24.78C133.122 24.78 134.438 24.4441 135.562 23.777C136.686 23.1099 137.442 22.2469 137.834 21.1973H139.257C138.762 22.5968 137.829 23.7444 136.462 24.6447C135.091 25.5404 133.482 25.9882 131.625 25.9882C130.039 25.9882 128.607 25.5917 127.329 24.7986V24.794ZM138.697 16.2852C138.613 14.9044 138.263 13.6635 137.647 12.5626C137.027 11.4617 136.201 10.594 135.161 9.96891C134.121 9.33914 132.94 9.0266 131.625 9.0266C130.309 9.0266 129.129 9.33914 128.089 9.96891C127.049 10.5987 126.218 11.4617 125.603 12.5626C124.987 13.6635 124.632 14.9044 124.553 16.2852H138.706H138.697Z" fill="#0C0C11"/>
<path d="M149.006 0.774384H167.731V5.65854H154.632V10.7853H166.654V15.6694H154.632V21.076H168.011V25.9555H149.011V0.774384H149.006Z" fill="#0C0C11"/>
<path d="M193.16 7.84637H198.66V9.69834C199.793 8.17292 201.482 7.41254 203.726 7.41254C204.715 7.41254 205.508 7.51516 206.105 7.72042L206.165 12.8798C205.382 12.4693 204.444 12.264 203.353 12.264C201.888 12.264 200.74 12.6559 199.91 13.4396C199.075 14.2233 198.66 15.3056 198.66 16.6864V25.9555H193.16V7.84637Z" fill="#0C0C11"/>
<path d="M220.104 12.5766H216.522V25.9555H211.022V12.5766H207.439V7.85105H211.022V2.47241H216.522V7.84638H220.104V12.5719V12.5766Z" fill="#0C0C11"/>
<path d="M222.357 0H227.857V9.703C228.991 8.17758 230.68 7.4172 232.923 7.4172C234.323 7.4172 235.559 7.74374 236.632 8.39216C237.7 9.04058 238.531 9.97356 239.118 11.1864C239.706 12.404 240 13.8314 240 15.4828V25.9555H234.5V16.4065C234.5 15.0257 234.225 13.9714 233.684 13.239C233.138 12.5066 232.35 12.1427 231.319 12.1427C230.288 12.1427 229.401 12.5439 228.786 13.3463C228.165 14.1487 227.857 15.2542 227.857 16.6537V25.9555H222.357V0Z" fill="#0C0C11"/>
<path d="M183.83 7.84637V8.96595C186.428 10.6826 188.15 13.6262 188.15 16.9756C188.15 20.325 186.433 23.2685 183.83 24.9852V25.9835H189.33V7.84637H183.83Z" fill="#0C0C11"/>
<path d="M183.83 8.96595C182.314 7.96766 180.504 7.37988 178.554 7.37988C173.255 7.37988 168.958 11.6763 168.958 16.9756C168.958 22.2749 173.255 26.5713 178.554 26.5713C180.504 26.5713 182.318 25.9835 183.83 24.9852C186.428 23.2685 188.15 20.325 188.15 16.9756C188.15 13.6262 186.433 10.6826 183.83 8.96595ZM185.803 12.6512L184.464 13.4489C184.418 13.4769 184.362 13.4862 184.31 13.4816L183.83 13.4303L182.874 13.323C182.832 13.323 182.794 13.3043 182.762 13.281L181.74 12.5813C181.707 12.5579 181.665 12.5439 181.623 12.5393L179.729 12.3433C179.659 12.334 179.585 12.362 179.533 12.4086L178.512 13.3789C178.442 13.4443 178.419 13.5469 178.447 13.6355L179.16 15.7674C179.179 15.8234 179.221 15.8747 179.272 15.9027L180.947 16.873C181.04 16.9289 181.162 16.9149 181.241 16.8403L181.843 16.2712C181.913 16.2012 182.02 16.1826 182.109 16.2245L183.774 16.9243C183.774 16.9243 183.811 16.9476 183.825 16.9616C183.863 16.9896 183.891 17.0222 183.909 17.0689L184.837 19.5833C184.861 19.6486 184.856 19.7232 184.824 19.7885L184.012 21.2906C183.928 21.4446 184.026 21.6312 184.194 21.6545L185.682 21.8691C185.169 22.6155 184.539 23.2732 183.825 23.8283C182.365 24.9572 180.532 25.6337 178.549 25.6337C173.772 25.6337 169.886 21.7478 169.886 16.9709C169.886 15.8374 170.11 14.7504 170.512 13.7568L170.959 15.021C170.992 15.1143 171.043 15.1936 171.113 15.2589L171.71 15.8234C171.86 15.9633 172.102 15.8747 172.126 15.6694L172.224 14.8251L171.948 14.4286V13.7335C171.948 13.5982 172.06 13.4862 172.196 13.4862H173.637C173.684 13.4862 173.73 13.4722 173.772 13.4489L175.456 12.362C175.489 12.3433 175.517 12.3154 175.536 12.2827L176.273 11.0465C176.385 10.8646 176.581 10.7479 176.795 10.7479H177.238C177.36 10.7479 177.467 10.6593 177.486 10.538L177.64 9.51174C177.658 9.39979 177.598 9.29249 177.388 9.20386L176.123 8.66273C176.893 8.43882 177.705 8.31286 178.549 8.31286C179.743 8.31286 180.882 8.55544 181.917 8.99394C181.894 9.00793 181.871 9.01726 181.852 9.03592L181.381 9.50708C181.199 9.68901 180.919 9.73566 180.686 9.6237L180.583 9.57239C180.35 9.46043 180.07 9.50708 179.888 9.68901L179.23 10.3468C179.128 10.4494 179.132 10.6173 179.244 10.7106L180.107 11.443C180.177 11.5037 180.275 11.5177 180.364 11.485L181.829 10.8832C181.889 10.8552 181.964 10.8599 182.025 10.8832L183.704 11.6296C183.741 11.6483 183.788 11.6529 183.825 11.6483C183.872 11.6483 183.919 11.6296 183.96 11.597C184.156 11.4383 184.539 11.1211 184.74 10.9205C185.243 11.4337 185.677 12.0121 186.041 12.6372C185.966 12.5999 185.873 12.5999 185.798 12.6466L185.803 12.6512Z" fill="#609933"/>
<path d="M177.574 18.0252H177.439C177.318 18.0252 177.206 17.9692 177.131 17.8759L176.287 16.7843C176.24 16.7237 176.165 16.6864 176.091 16.6864H174.523C174.439 16.6864 174.36 16.6444 174.313 16.5744L173.642 15.5435C173.558 15.4129 173.371 15.3942 173.259 15.5015L172.611 16.1499C172.611 16.1499 172.587 16.1732 172.578 16.1872L171.622 17.652C171.552 17.7593 171.575 17.8993 171.673 17.9786L172.867 18.9489C172.928 19.0002 172.998 19.0375 173.073 19.0561L173.581 19.2148C173.679 19.2474 173.749 19.336 173.758 19.4387L173.898 22.5128C173.898 22.5735 173.926 22.6341 173.968 22.6761L175.148 23.8797C175.302 24.0383 175.573 23.9263 175.573 23.7071V22.8254C175.573 22.6668 175.634 22.5175 175.741 22.4056L176.263 21.8644C176.31 21.8178 176.333 21.7571 176.333 21.6918V20.8195C176.333 20.7402 176.371 20.6702 176.431 20.6236L177.402 19.8912C177.439 19.8632 177.467 19.8212 177.486 19.7792L177.938 18.543C178.031 18.2911 177.845 18.0205 177.574 18.0205V18.0252Z" fill="#609933"/>
</g>
<defs>
<clipPath id="clip0_98_986">
<rect width="240" height="26.5713" fill="white"/>
</clipPath>
</defs>
</svg>
